<?xml version="1.0" encoding="UTF-8" standalone="no"?>
<svg xmlns="http://www.w3.org/2000/svg" height="82.721" viewBox="0 0 82.720832 82.720833" width="82.721" version="1.1" xmlns:xlink="http://www.w3.org/1999/xlink">
 <defs>
  <clipPath id="c" clipPathUnits="userSpaceOnUse">
   <circle style="paint-order:stroke fill markers" cx="37.36" cy="37.36" r="41.36" fill="#00853f"/>
  </clipPath>
  <linearGradient id="b" y2="75.812" gradientUnits="userSpaceOnUse" x2="38.191" y1="-1.5752" x1="38.191">
   <stop stop-color="#267716" offset="0"/>
   <stop stop-color="#3dab27" offset="1"/>
  </linearGradient>
  <linearGradient id="a" y2="207.17" gradientUnits="userSpaceOnUse" x2="414.34" y1="207.17" x1="-.00020037">
   <stop stop-color="#47ca2e" offset="0"/>
   <stop stop-color="#369b22" stop-opacity=".10526" offset="1"/>
  </linearGradient>
 </defs>
 <g transform="translate(4 4)" clip-path="url(#c)">
  <rect style="paint-order:stroke fill markers" rx="188.98" ry="102.91" height="102.91" width="102.31" y="-11.424" x="-12.261" fill="url(#b)"/>
  <path d="m18.055 27.667c-6.3236 6.3413-9.7985 14.799-9.7809 23.83 0.02646 18.839 15.928 34.767 34.714 34.767v-5.865c-15.346 0-28.831-13.512-28.858-28.919-0.0088-7.4613 2.8487-14.446 8.0699-19.676 5.2476-5.2565 12.286-8.1581 19.818-8.1581v-5.857c-9.1018 0-17.604 3.5102-23.963 9.8779" fill-opacity=".58824" fill="#99ceb2"/>
  <path d="m35.433 26.365c-6.7381 1.8168-12.294 6.0414-15.646 11.898-7.038 12.303-3.2985 27.323 8.8901 35.71 18.089 12.436 50.386 4.5773 51.744 4.2422l-1.4111-5.6886c-0.30868 0.07938-31.098 7.5495-47.008-3.3779-9.6221-6.6147-12.621-18.38-7.1262-27.976 2.5753-4.4892 6.8616-7.7436 12.083-9.1459 5.3535-1.4464 10.892-0.74084 15.602 1.9756l2.9281-5.0801c-6.068-3.501-13.194-4.409-20.056-2.557" fill-opacity=".58824" fill="#cce7d9"/>
  <path d="m33.435 35.794c-5.8474 3.3779-9.1194 9.5251-9.1194 15.84 0 2.9281 0.73202 5.8826 2.2049 8.6167l-0.01764 0.01764c0 0.0088 0.05292 0.09701 0.07056 0.13229h-0.0088s0.03528 0.05292 0.06174 0.09701c0.03528 0.07056 0.12347 0.22931 0.13229 0.23813 0.91723 1.5787 4.4539 6.8969 12.206 9.7191 15.972 5.8297 43.022-0.02646 44.168-0.28222l-1.2612-5.7239c-0.26459 0.06174-26.538 5.7415-40.905 0.50271-6.1031-2.2225-8.652-6.2795-9.1194-7.1174 0 0-0.01764-0.02646-0.01764-0.03528-1.1201-1.9491-1.6581-4.0746-1.6581-6.1737 0-4.2863 2.2225-8.4579 6.1913-10.76 2.8664-1.6493 6.209-2.0902 9.4105-1.2347 3.1927 0.8555 5.865 2.9105 7.5231 5.7768l5.1683-2.7517-0.09701-0.17639c-2.4342-4.2246-6.3677-7.2408-11.077-8.5109-4.7096-1.2612-9.6309-0.60855-13.856 1.8256" fill-opacity=".58824" fill="#fff"/>
 </g>
 <g fill="url(#a)" transform="matrix(0 .086952 -.086952 0 85.267 22.024)">
  <g fill="url(#a)">
   <path fill="url(#a)" d="m6.076 162.62 177.76-104.02c3.795-2.222 8.485-2.241 12.304-0.057 3.815 2.187 6.17 6.246 6.174 10.644l0.036 46.966c0.213 0.052 0.38 0.094 0.495 0.126 4.441 1.239 9.163 2.603 14.854 4.294 18.457 5.483 37.417 12.593 59.668 22.374 19.31 8.487 38.2 19.442 56.149 32.559 12.826 9.373 24.895 20.182 35.867 32.126 29.857 32.497 46.216 75.647 44.881 118.39-0.233 7.489-1.076 14.674-1.869 20.716-0.787 6.008-5.84 10.542-11.897 10.678-0.093 0.002-0.187 0.003-0.277 0.003-5.939 0-11.048-4.263-12.086-10.14-3.304-18.678-8.574-34.021-16.111-46.909-9.42-16.104-22.223-29.625-37.021-39.103-12.718-8.145-26.153-14.396-41.075-19.113-17.405-5.503-36.597-8.951-58.671-10.545-8.906-0.643-18.502-0.967-30.2-1.02-0.354 0-1.112 0.007-2.098 0.019l-0.032 44.29c-0.004 4.372-2.332 8.413-6.113 10.608-3.782 2.196-8.446 2.214-12.245 0.048l-178.38-101.68c-3.814-2.17-6.176-6.21-6.2-10.6-0.025-4.385 2.291-8.45 6.076-10.666z"/>
  </g>
 </g>
</svg>
